<svg width="101" height="82" viewBox="0 0 101 82" fill="none" xmlns="http://www.w3.org/2000/svg">
<path d="M60.7089 80.3661C82.4893 80.3661 100.5 62.3161 100.5 40.5358C100.5 18.7947 82.45 0.703613 60.6679 0.703613C40.5321 0.703613 23.6446 16.1465 21.1982 35.6018C22.2411 35.6018 23.2446 35.6804 24.2464 35.8411C25.4893 36.0018 26.7339 36.2822 27.9375 36.6447C28.8636 28.6173 32.7121 21.2117 38.7491 15.8403C44.7861 10.4689 52.589 7.50771 60.6696 7.52147C65.0097 7.51113 69.3092 8.35774 73.3213 10.0128C77.3335 11.6678 80.9794 14.0986 84.05 17.1659C87.1205 20.2331 89.5553 23.8764 91.2147 27.8868C92.874 31.8972 93.7253 36.1957 93.7196 40.5358C93.7196 49.0804 90.55 56.7822 85.3357 62.6375C79.2786 57.584 70.2143 54.2143 60.6661 54.2143C56.1732 54.2143 51.0804 55.1786 46.3464 56.8626C46.6268 58.3858 46.7875 59.9518 46.7875 61.5143C46.7875 66.7697 45.1446 71.7036 42.3768 75.8358C47.8714 78.684 54.1268 80.3679 60.7071 80.3679M60.6661 47.3143C68.3679 47.3143 74.1839 40.6572 74.1839 32.2733C74.1839 24.3715 68.2482 17.5125 60.6661 17.5125C53.125 17.5125 47.1482 24.3697 47.1482 32.2733C47.1482 40.6572 53.0054 47.3143 60.6661 47.3143ZM20.8768 81.8929C31.9482 81.8929 41.2536 72.6661 41.2536 61.5143C41.2536 50.3643 32.0679 41.1393 20.8786 41.1393C9.72321 41.1358 0.5 50.3608 0.5 61.5108C0.5 72.7429 9.72679 81.8893 20.8768 81.8893M20.9179 74.7483C19.5125 74.7483 18.2696 73.7858 18.2696 72.2626V63.959H10.6089C9.24464 63.959 8.12143 62.834 8.12143 61.5126C8.12471 60.8538 8.38784 60.223 8.85363 59.7573C9.31942 59.2915 9.95021 59.0283 10.6089 59.025H18.2696V50.7215C18.2696 49.2376 19.5125 48.275 20.9179 48.275C22.2804 48.275 23.525 49.2376 23.525 50.7215V59.025H31.1857C32.55 59.025 33.6321 60.1483 33.6321 61.5108C33.6321 62.8358 32.55 63.9572 31.1857 63.9572H23.525V72.2608C23.525 73.7858 22.2804 74.7483 20.9179 74.7483Z" fill="url(#paint0_linear_656_5599)"/>
<defs>
<linearGradient id="paint0_linear_656_5599" x1="50.5" y1="0.703613" x2="50.5" y2="81.8929" gradientUnits="userSpaceOnUse">
<stop stop-color="#013451"/>
<stop offset="1" stop-color="#3C6A89"/>
</linearGradient>
</defs>
</svg>
