<svg width="60" height="61" viewBox="0 0 60 61" fill="none" xmlns="http://www.w3.org/2000/svg">
<path d="M20.625 45.5C16.2917 45.5 12.6042 43.9792 9.5625 40.9375C6.52083 37.8958 5 34.2083 5 29.875C5 25.5417 6.52083 21.8542 9.5625 18.8125C12.6042 15.7708 16.2917 14.25 20.625 14.25H43.75C46.875 14.25 49.5317 15.3442 51.72 17.5325C53.9083 19.7208 55.0017 22.3767 55 25.5C54.9983 28.6233 53.905 31.28 51.72 33.47C49.535 35.66 46.8783 36.7533 43.75 36.75H21.875C19.9583 36.75 18.3333 36.0833 17 34.75C15.6667 33.4167 15 31.7917 15 29.875C15 27.9583 15.6667 26.3333 17 25C18.3333 23.6667 19.9583 23 21.875 23H45V28H21.875C21.3333 28 20.8858 28.1775 20.5325 28.5325C20.1792 28.8875 20.0017 29.335 20 29.875C19.9983 30.415 20.1758 30.8633 20.5325 31.22C20.8892 31.5767 21.3367 31.7533 21.875 31.75H43.75C45.5 31.7083 46.9792 31.0942 48.1875 29.9075C49.3958 28.7208 50 27.2517 50 25.5C50 23.7483 49.3958 22.2692 48.1875 21.0625C46.9792 19.8558 45.5 19.2517 43.75 19.25H20.625C17.6667 19.2083 15.1567 20.2292 13.095 22.3125C11.0333 24.3958 10.0017 26.9167 10 29.875C10 32.7917 11.0317 35.2708 13.095 37.3125C15.1583 39.3542 17.6683 40.4167 20.625 40.5H45V45.5H20.625Z" fill="white"/>
</svg>
