<svg width="50" height="50" viewBox="0 0 50 50" fill="none" xmlns="http://www.w3.org/2000/svg">
<path d="M0 8.59375C0 5.575 2.45 3.125 5.46875 3.125H15.625C17.3438 3.125 18.9688 3.9375 20 5.3125L22.8125 9.0625C22.8853 9.15953 22.9796 9.23828 23.0881 9.29252C23.1966 9.34676 23.3162 9.375 23.4375 9.375H44.5312C47.55 9.375 50 11.825 50 14.8438V41.4062C50 42.8567 49.4238 44.2477 48.3982 45.2732C47.3727 46.2988 45.9817 46.875 44.5312 46.875H5.46875C4.01835 46.875 2.62735 46.2988 1.60176 45.2732C0.57617 44.2477 0 42.8567 0 41.4062L0 8.59375ZM5.46875 7.8125C5.26155 7.8125 5.06284 7.89481 4.91632 8.04132C4.76981 8.18784 4.6875 8.38655 4.6875 8.59375V41.4062C4.6875 41.8375 5.0375 42.1875 5.46875 42.1875H44.5312C44.7384 42.1875 44.9372 42.1052 45.0837 41.9587C45.2302 41.8122 45.3125 41.6134 45.3125 41.4062V14.8438C45.3125 14.6365 45.2302 14.4378 45.0837 14.2913C44.9372 14.1448 44.7384 14.0625 44.5312 14.0625H23.4375C21.7188 14.0625 20.0938 13.25 19.0625 11.875L16.25 8.125C16.1772 8.02797 16.0829 7.94922 15.9744 7.89498C15.8659 7.84074 15.7463 7.8125 15.625 7.8125H5.46875Z" fill="white"/>
</svg>
