<svg width="38" height="38" viewBox="0 0 38 38" fill="none" xmlns="http://www.w3.org/2000/svg">
<path d="M8 10H6C4.93913 10 3.92172 10.4214 3.17157 11.1716C2.42143 11.9217 2 12.9391 2 14V32C2 33.0609 2.42143 34.0783 3.17157 34.8284C3.92172 35.5786 4.93913 36 6 36H24C25.0609 36 26.0783 35.5786 26.8284 34.8284C27.5786 34.0783 28 33.0609 28 32V30" stroke="#3C6A89" stroke-width="4" stroke-linecap="round" stroke-linejoin="round"/>
<path d="M26 6.00021L32 12.0002M34.77 9.17021C35.5577 8.38252 36.0002 7.31418 36.0002 6.20021C36.0002 5.08625 35.5577 4.01791 34.77 3.23021C33.9823 2.44252 32.914 2 31.8 2C30.686 2 29.6177 2.44252 28.83 3.23021L12 20.0002V26.0002H18L34.77 9.17021Z" stroke="#3C6A89" stroke-width="4" stroke-linecap="round" stroke-linejoin="round"/>
</svg>
