<svg width="51" height="51" viewBox="0 0 51 51" fill="none" xmlns="http://www.w3.org/2000/svg">
<path d="M18.1473 8.84716C19.6673 4.39925 25.813 4.26454 27.6151 8.44304L27.7676 8.8497L29.8187 14.848C30.2887 16.2237 31.0484 17.4825 32.0463 18.5396C33.0442 19.5967 34.2572 20.4275 35.6035 20.976L36.1551 21.1819L42.1534 23.2305C46.6013 24.7504 46.736 30.8961 42.5601 32.6982L42.1534 32.8507L36.1551 34.9018C34.779 35.3715 33.5196 36.131 32.4621 37.1289C31.4045 38.1269 30.5733 39.3401 30.0246 40.6866L29.8187 41.2356L27.7701 47.2365C26.2502 51.6844 20.1044 51.8191 18.3049 47.6432L18.1473 47.2365L16.0988 41.2382C15.629 39.8621 14.8695 38.6027 13.8716 37.5452C12.8737 36.4876 11.6605 35.6564 10.3139 35.1077L9.76493 34.9018L3.7666 32.8532C-0.683863 31.3333 -0.818571 25.1875 3.35993 23.388L3.7666 23.2305L9.76493 21.1819C11.1406 20.7118 12.3994 19.9522 13.4565 18.9543C14.5136 17.9564 15.3444 16.7433 15.8929 15.397L16.0988 14.848L18.1473 8.84716ZM22.9587 10.4891L20.9101 16.4874C20.1944 18.5851 19.03 20.5015 17.498 22.1032C15.9661 23.705 14.1034 24.9535 12.0397 25.762L11.4043 25.9932L5.40597 28.0418L11.4043 30.0904C13.5019 30.8062 15.4184 31.9706 17.0201 33.5025C18.6218 35.0345 19.8704 36.8971 20.6788 38.9608L20.9101 39.5962L22.9587 45.5946L25.0073 39.5962C25.7231 37.4986 26.8875 35.5822 28.4194 33.9804C29.9513 32.3787 31.814 31.1301 33.8777 30.3217L34.5131 30.093L40.5115 28.0418L34.5131 25.9932C32.4155 25.2775 30.4991 24.1131 28.8973 22.5811C27.2956 21.0492 26.047 19.1865 25.2386 17.1228L25.0098 16.4874L22.9587 10.4891ZM43.2921 0.0834966C43.7676 0.0834955 44.2335 0.216878 44.637 0.468486C45.0405 0.720094 45.3653 1.07984 45.5745 1.50683L45.6965 1.8042L46.5861 4.41195L49.1964 5.30154C49.6729 5.46343 50.0906 5.76314 50.3966 6.16269C50.7026 6.56224 50.8831 7.04364 50.9152 7.54588C50.9473 8.04812 50.8296 8.5486 50.577 8.98387C50.3244 9.41915 49.9483 9.76963 49.4963 9.99091L49.1964 10.1129L46.5886 11.0025L45.699 13.6128C45.5368 14.0892 45.2369 14.5067 44.8372 14.8124C44.4375 15.1182 43.956 15.2984 43.4538 15.3302C42.9516 15.3621 42.4512 15.2441 42.0161 14.9913C41.581 14.7385 41.2307 14.3622 41.0096 13.9102L40.8876 13.6128L39.9981 11.005L37.3878 10.1155C36.9112 9.95356 36.4935 9.65385 36.1875 9.2543C35.8815 8.85475 35.701 8.37335 35.6689 7.87111C35.6368 7.36887 35.7545 6.8684 36.0071 6.43312C36.2597 5.99784 36.6358 5.64736 37.0878 5.42608L37.3878 5.30408L39.9955 4.4145L40.8851 1.8042C41.0565 1.30204 41.3807 0.866097 41.8124 0.557514C42.244 0.248931 42.7614 0.0831777 43.2921 0.0834966Z" fill="#3C6A89"/>
</svg>
