<svg width="101" height="80" viewBox="0 0 101 100" fill="none" xmlns="http://www.w3.org/2000/svg">
<path d="M50.5 50C56.3016 50 61.8656 47.6953 65.968 43.593C70.0703 39.4906 72.375 33.9266 72.375 28.125C72.375 22.3234 70.0703 16.7594 65.968 12.657C61.8656 8.55468 56.3016 6.25 50.5 6.25C44.6984 6.25 39.1344 8.55468 35.032 12.657C30.9297 16.7594 28.625 22.3234 28.625 28.125C28.625 33.9266 30.9297 39.4906 35.032 43.593C39.1344 47.6953 44.6984 50 50.5 50ZM23.9375 56.25C21.0367 56.25 18.2547 57.4023 16.2035 59.4535C14.1523 61.5047 13 64.2867 13 67.1875V68.75C13 76.2281 17.7594 82.5531 24.5156 86.8531C31.3094 91.1781 40.5063 93.75 50.5 93.75C60.4938 93.75 69.6875 91.1781 76.4844 86.8531C83.2406 82.5531 88 76.2281 88 68.75V67.1875C88 64.2867 86.8477 61.5047 84.7965 59.4535C82.7453 57.4023 79.9633 56.25 77.0625 56.25H23.9375Z" fill="url(#paint0_linear_656_5596)"/>
<defs>
<linearGradient id="paint0_linear_656_5596" x1="50.5" y1="6.25" x2="50.5" y2="93.75" gradientUnits="userSpaceOnUse">
<stop stop-color="#013451"/>
<stop offset="1" stop-color="#3C6A89"/>
</linearGradient>
</defs>
</svg>
