<svg width="40" height="40" viewBox="0 0 40 40" fill="none" xmlns="http://www.w3.org/2000/svg">
<rect width="40" height="40" rx="20" fill="#3C6A89"/>
<path d="M26.7896 11.0744C27.8056 10.7194 28.7816 11.6954 28.4266 12.7114L22.5016 29.6414C22.1166 30.7394 20.5866 30.8014 20.1146 29.7384L17.2556 23.3064L21.2796 19.2814C21.4121 19.1392 21.4842 18.9512 21.4808 18.7569C21.4774 18.5626 21.3986 18.3772 21.2612 18.2398C21.1238 18.1024 20.9384 18.0237 20.7441 18.0202C20.5498 18.0168 20.3618 18.0889 20.2196 18.2214L16.1946 22.2454L9.76261 19.3864C8.69961 18.9134 8.76261 17.3844 9.85961 16.9994L26.7896 11.0744Z" fill="#E6E6E6"/>
</svg>
