<svg width="40" height="40" viewBox="0 0 40 40" fill="none" xmlns="http://www.w3.org/2000/svg">
<path d="M27.5 4.375V7.5H33.125C33.6223 7.5 34.0992 7.69754 34.4508 8.04917C34.8025 8.40081 35 8.87772 35 9.375C35 9.87228 34.8025 10.3492 34.4508 10.7008C34.0992 11.0525 33.6223 11.25 33.125 11.25H6.875C6.37772 11.25 5.90081 11.0525 5.54917 10.7008C5.19754 10.3492 5 9.87228 5 9.375C5 8.87772 5.19754 8.40081 5.54917 8.04917C5.90081 7.69754 6.37772 7.5 6.875 7.5H12.5V4.375C12.5 1.96 14.46 0 16.875 0H23.125C25.54 0 27.5 1.96 27.5 4.375ZM11.24 16.6875L12.89 33.1875C12.9055 33.3418 12.9778 33.4848 13.0928 33.5887C13.2079 33.6927 13.3575 33.7502 13.5125 33.75H26.4875C26.6425 33.7502 26.7921 33.6927 26.9072 33.5887C27.0222 33.4848 27.0945 33.3418 27.11 33.1875L28.76 16.6875C28.822 16.2032 29.0705 15.7622 29.4526 15.4582C29.8347 15.1542 30.3203 15.0113 30.8061 15.0598C31.292 15.1084 31.7398 15.3445 32.0542 15.718C32.3687 16.0915 32.525 16.573 32.49 17.06L30.84 33.56C30.7321 34.6395 30.227 35.6404 29.4228 36.3685C28.6185 37.0965 27.5724 37.4998 26.4875 37.5H13.5125C12.428 37.4999 11.3822 37.0969 10.578 36.3694C9.7738 35.6419 9.26845 34.6415 9.16 33.5625L7.51 17.0625C7.47869 16.8143 7.49738 16.5622 7.56498 16.3213C7.63257 16.0804 7.74771 15.8555 7.90359 15.6598C8.05947 15.464 8.25295 15.3015 8.47263 15.1817C8.69231 15.0619 8.93374 14.9873 9.1827 14.9623C9.43166 14.9372 9.68311 14.9623 9.92224 15.036C10.1614 15.1096 10.3833 15.2304 10.5751 15.3912C10.7668 15.552 10.9244 15.7495 11.0386 15.9721C11.1528 16.1947 11.2213 16.438 11.24 16.6875ZM16.25 4.375V7.5H23.75V4.375C23.75 4.20924 23.6842 4.05027 23.5669 3.93306C23.4497 3.81585 23.2908 3.75 23.125 3.75H16.875C16.7092 3.75 16.5503 3.81585 16.4331 3.93306C16.3158 4.05027 16.25 4.20924 16.25 4.375Z" fill="white"/>
</svg>
