<svg width="40" height="40" viewBox="0 0 40 40" fill="none" xmlns="http://www.w3.org/2000/svg">
<path d="M5 21.667C11 8.33366 29 8.33366 35 21.667" stroke="white" stroke-width="2.5" stroke-linecap="round" stroke-linejoin="round"/>
<path d="M20 28.334C19.3434 28.334 18.6932 28.2047 18.0866 27.9534C17.48 27.7021 16.9288 27.3338 16.4645 26.8695C16.0002 26.4052 15.6319 25.854 15.3806 25.2474C15.1293 24.6408 15 23.9906 15 23.334C15 22.6774 15.1293 22.0272 15.3806 21.4206C15.6319 20.8139 16.0002 20.2627 16.4645 19.7984C16.9288 19.3342 17.48 18.9659 18.0866 18.7146C18.6932 18.4633 19.3434 18.334 20 18.334C21.3261 18.334 22.5979 18.8608 23.5355 19.7984C24.4732 20.7361 25 22.0079 25 23.334C25 24.6601 24.4732 25.9318 23.5355 26.8695C22.5979 27.8072 21.3261 28.334 20 28.334Z" fill="white" stroke="white" stroke-width="2.5" stroke-linecap="round" stroke-linejoin="round"/>
</svg>
