<svg width="50" height="50" viewBox="0 0 50 50" fill="none" xmlns="http://www.w3.org/2000/svg">
<path d="M39.3333 6C40.4384 6 41.4982 6.43899 42.2796 7.22039C43.061 8.00179 43.5 9.0616 43.5 10.1667V39.3333C43.5 40.4384 43.061 41.4982 42.2796 42.2796C41.4982 43.061 40.4384 43.5 39.3333 43.5H10.1667C9.0616 43.5 8.00179 43.061 7.22039 42.2796C6.43899 41.4982 6 40.4384 6 39.3333V10.1667C6 9.0616 6.43899 8.00179 7.22039 7.22039C8.00179 6.43899 9.0616 6 10.1667 6H39.3333ZM38.2917 38.2917V27.25C38.2917 25.4487 37.5761 23.7213 36.3024 22.4476C35.0287 21.1739 33.3013 20.4583 31.5 20.4583C29.7292 20.4583 27.6667 21.5417 26.6667 23.1667V20.8542H20.8542V38.2917H26.6667V28.0208C26.6667 26.4167 27.9583 25.1042 29.5625 25.1042C30.336 25.1042 31.0779 25.4115 31.6249 25.9584C32.1719 26.5054 32.4792 27.2473 32.4792 28.0208V38.2917H38.2917ZM14.0833 17.5833C15.0116 17.5833 15.9018 17.2146 16.5582 16.5582C17.2146 15.9018 17.5833 15.0116 17.5833 14.0833C17.5833 12.1458 16.0208 10.5625 14.0833 10.5625C13.1496 10.5625 12.254 10.9334 11.5937 11.5937C10.9334 12.254 10.5625 13.1496 10.5625 14.0833C10.5625 16.0208 12.1458 17.5833 14.0833 17.5833ZM16.9792 38.2917V20.8542H11.2083V38.2917H16.9792Z" fill="white"/>
</svg>
