<svg width="43" height="43" viewBox="0 0 43 43" fill="none" xmlns="http://www.w3.org/2000/svg">
<path d="M13.9749 3.5835H29.0249C34.7583 3.5835 39.4166 8.24183 39.4166 13.9752V29.0252C39.4166 31.7812 38.3218 34.4244 36.3729 36.3732C34.4241 38.322 31.781 39.4168 29.0249 39.4168H13.9749C8.24159 39.4168 3.58325 34.7585 3.58325 29.0252V13.9752C3.58325 11.2191 4.67809 8.57596 6.6269 6.62714C8.57572 4.67833 11.2189 3.5835 13.9749 3.5835ZM13.6166 7.16683C11.9059 7.16683 10.2654 7.84638 9.05575 9.05599C7.84614 10.2656 7.16659 11.9062 7.16659 13.6168V29.3835C7.16659 32.9489 10.0512 35.8335 13.6166 35.8335H29.3833C31.0939 35.8335 32.7345 35.1539 33.9441 33.9443C35.1537 32.7347 35.8333 31.0941 35.8333 29.3835V13.6168C35.8333 10.0514 32.9487 7.16683 29.3833 7.16683H13.6166ZM30.9062 9.85433C31.5001 9.85433 32.0698 10.0903 32.4898 10.5103C32.9098 10.9303 33.1458 11.4999 33.1458 12.0939C33.1458 12.6879 32.9098 13.2575 32.4898 13.6775C32.0698 14.0975 31.5001 14.3335 30.9062 14.3335C30.3122 14.3335 29.7425 14.0975 29.3225 13.6775C28.9025 13.2575 28.6666 12.6879 28.6666 12.0939C28.6666 11.4999 28.9025 10.9303 29.3225 10.5103C29.7425 10.0903 30.3122 9.85433 30.9062 9.85433ZM21.4999 12.5418C23.8758 12.5418 26.1544 13.4857 27.8344 15.1657C29.5144 16.8457 30.4583 19.1243 30.4583 21.5002C30.4583 23.8761 29.5144 26.1546 27.8344 27.8347C26.1544 29.5147 23.8758 30.4585 21.4999 30.4585C19.124 30.4585 16.8454 29.5147 15.1654 27.8347C13.4854 26.1546 12.5416 23.8761 12.5416 21.5002C12.5416 19.1243 13.4854 16.8457 15.1654 15.1657C16.8454 13.4857 19.124 12.5418 21.4999 12.5418ZM21.4999 16.1252C20.0744 16.1252 18.7072 16.6915 17.6992 17.6995C16.6912 18.7075 16.1249 20.0746 16.1249 21.5002C16.1249 22.9257 16.6912 24.2929 17.6992 25.3009C18.7072 26.3089 20.0744 26.8752 21.4999 26.8752C22.9255 26.8752 24.2926 26.3089 25.3006 25.3009C26.3086 24.2929 26.8749 22.9257 26.8749 21.5002C26.8749 20.0746 26.3086 18.7075 25.3006 17.6995C24.2926 16.6915 22.9255 16.1252 21.4999 16.1252Z" fill="white"/>
</svg>
