<svg width="216" height="36" viewBox="0 0 216 36" fill="none" xmlns="http://www.w3.org/2000/svg">
<path d="M186 27C185.575 27 185.219 26.856 184.932 26.568C184.645 26.28 184.501 25.924 184.5 25.5C184.499 25.076 184.643 24.72 184.932 24.432C185.221 24.144 185.577 24 186 24H210C210.425 24 210.782 24.144 211.07 24.432C211.358 24.72 211.501 25.076 211.5 25.5C211.499 25.924 211.355 26.2805 211.068 26.5695C210.781 26.8585 210.425 27.002 210 27H186ZM186 19.5C185.575 19.5 185.219 19.356 184.932 19.068C184.645 18.78 184.501 18.424 184.5 18C184.499 17.576 184.643 17.22 184.932 16.932C185.221 16.644 185.577 16.5 186 16.5H210C210.425 16.5 210.782 16.644 211.07 16.932C211.358 17.22 211.501 17.576 211.5 18C211.499 18.424 211.355 18.7805 211.068 19.0695C210.781 19.3585 210.425 19.502 210 19.5H186ZM186 12C185.575 12 185.219 11.856 184.932 11.568C184.645 11.28 184.501 10.924 184.5 10.5C184.499 10.076 184.643 9.72 184.932 9.432C185.221 9.144 185.577 9 186 9H210C210.425 9 210.782 9.144 211.07 9.432C211.358 9.72 211.501 10.076 211.5 10.5C211.499 10.924 211.355 11.2805 211.068 11.5695C210.781 11.8585 210.425 12.002 210 12H186Z" fill="white"/>
</svg>
